<?xml version="1.0" encoding="utf-8"?>
<!-- Generator: Adobe Illustrator 28.1.0, SVG Export Plug-In . SVG Version: 6.00 Build 0)  -->
<svg version="1.1" id="burple_x5F_1" xmlns="http://www.w3.org/2000/svg" xmlns:xlink="http://www.w3.org/1999/xlink" x="0px"
	 y="0px" viewBox="0 0 197.4 77.6" style="enable-background:new 0 0 197.4 77.6;" xml:space="preserve">
<style type="text/css">
	.st0{fill:#311F7F;}
	.st1{fill:#F3EC0F;}
	.st2{fill:#FF7F00;}
</style>
<g id="ple">
	<path id="e_back" class="st0" d="M184,18.2l2.1,1.3c0.5,0.3,0.9,0.8,1.1,1.5l2.4,7.6l-6.3,2l2.4,1.7c0.4,0.3,0.6,0.6,0.8,1.1l2.3,7
		l-8.2,2.6l1.4,4.3l6.2-3.9c0.8-0.5,1.8-0.5,2.6,0l2.8,1.5c0.5,0.3,0.9,0.7,1,1.3l2.7,8.5l-18.3,5.9l-5.2-1.8l-9.6-30.9l15.2-9.4
		C180.2,17.9,182.3,17.3,184,18.2L184,18.2z"/>
	<path id="e_front" class="st1" d="M184.4,26.1l-2.3-7.2c-0.2-1.1-1.6-1.4-2.2-1L161,28.2l4.2,9.9l0,0l8.5,20.1l6.1-2l12.5-4
		l-2.7-8.5c-0.2-0.7-1-1-1.6-0.7l-10.1,6.3l-2.4-8.8l8.5-2.6l-1.8-5.5c-0.2-0.6-0.9-1-1.5-0.8l-7,2.4l-1.1-4.1L184.4,26.1
		L184.4,26.1z"/>
	<path id="l_back" class="st0" d="M155.1,17.5l7.3,0.8c3.4,1,2.6,4.2,2.4,5.3L161.2,53l8.6-2.7c1.6-0.5,3.4-0.1,4.6,1.1l1.8,1.8
		c0.6,0.6,1,1.4,1,2.3v8c0,1.4-1.1,2.5-2.5,2.5h-24.3l-3.5-4l5-41.8L155.1,17.5L155.1,17.5z"/>
	<path id="l_front" class="st1" d="M155.6,54.7l4.6-34.4c0.2-1.7-1-3.2-2.8-3.4l-10.4-0.7c-2-0.1-3.6,1.5-3.4,3.5l3,37.8l0,0
		l0.3,4.6h25.5v-9.6c0-1.5-1.4-2.5-2.8-2.1L155.6,54.7L155.6,54.7z"/>
	<path id="p_back" class="st0" d="M133.6,1.4c0,0,20.8,2.6,22.3,20.4c1.2,14.9-16.9,17.6-23.1,17.1l6.4,29.5
		c0.6,2.8-1.3,5.6-4.2,5.9l-19.1,2.3l-6.5-5.8l-2-66.8C107.4,3.9,117.2-1.4,133.6,1.4L133.6,1.4z"/>
	<path id="p_front" class="st1" d="M148.4,13.4c-4.9-20.3-37.8-12.2-41.7-9.8l2.7,67.1l19.5-1.8c2.6-0.2,4.4-2.7,4-5.3l-5.7-30.4
		C127.1,33.2,153.3,33.8,148.4,13.4L148.4,13.4z M124.6,24.5l-3-14.7c0,0,7.6-2.5,14.2-0.4c5.3,1.7,4.2,7.3,4.2,7.3
		c-12.7-5.3-8.5,6.5-8.5,6.5C129,25.5,124.6,24.5,124.6,24.5L124.6,24.5z"/>
</g>
<g id="bur">
	<path id="r_back" class="st0" d="M103.8,48.5c1.2-1.4,2-2.1,2-5c0.3-11.1-11.3-12.7-11.3-12.7c-9.6-2.2-18.7,1.5-18.7,1.5l2.2,41.2
		l2.8,4l15.2-1.7c1.8-0.2,1.8-2.4,1.4-3.7l-3.8-16.2l-3.3-3.8l13.6,15.7l4.3,1.1l7.2-6.5c1.1-1.1,1.4-4.4,0.2-5.2L103.8,48.5
		L103.8,48.5z"/>
	<path id="r_front" class="st2" d="M110.3,57.4l-13-9c3.2-1.7,5.7-4.7,4.2-10.4c-3.2-12.4-23.3-7.1-25.7-5.7l2.2,41.2L90,72.3
		c1.7-0.2,2.8-1.7,2.5-3.4l-3.4-16.7c-0.1-0.5,0.5-0.8,0.9-0.4l13.9,16.1l6.8-6.6C111.8,60.2,111.7,58.3,110.3,57.4L110.3,57.4z
		 M96.8,40.6c-8.3-3.7-5.6,4.5-5.6,4.5c-1.6,1.7-4.4,1-4.4,1l-2-10.3c0,0,5-1.8,9.3-0.3C97.5,36.6,96.8,40.6,96.8,40.6z"/>
	<path id="u_back" class="st0" d="M81.1,40.7c0-0.7,0-2-0.6-2.4l-5.3-2.6l-9.8,0v28.7c0,0.7-0.6,1.3-1.3,1.4l-2.5,0
		c-0.3,0-0.6-0.3-0.6-0.6L61,40.1c0-0.8-2.6-3.5-5.8-4h-7.3l-0.3,29.4c2.1,10.5,20.5,12.5,26.4,9.4s7-6.6,7.2-9.1
		C81.3,59.9,81.2,45.8,81.1,40.7L81.1,40.7z"/>
	<path id="u_front" class="st2" d="M74.5,35.6H64.3l0,26c0.1,4.3-6.8,4.4-6.9,0.1V38.5c0-1.3-1-2.3-2.3-2.3h-7.6c-0.4,0-0.6,0-0.8,0
		h-0.3v1.9h0v22.5c0,0-0.8,14.3,14.6,14.3c13.7,0,15.9-10,15.9-11.8c0-2.8,0-25,0-25C77,36.7,75.9,35.6,74.5,35.6L74.5,35.6z"/>
	<path id="b_back" class="st0" d="M13.8,2.2C11.7,4.9,0,62.1,0,62.1l5.7,9c0,0,11.6,6.6,31.6,0c21-7,15.9-34.3,4.3-40.2
		c-0.5-0.3-0.3-0.7,0.2-1.1c4.8-4.1,10.9-32.5-26.2-27.9C15.1,1.9,14.1,1.9,13.8,2.2L13.8,2.2z"/>
	<path id="b_front" class="st2" d="M37.9,30.2c-0.5-0.2-0.6-0.8-0.2-1.2C42,24.3,56-2.1,14.5,1.6c-0.4,0-0.8,0.2-1.1,0.6
		C11.4,4.7,3.2,17.5,0,62.1c0,0,14.4,7.2,33.6,0.7C52,56.4,47.5,35.4,37.9,30.2z M30.2,48.8c0,0-4.2-2-5.8-1.2
		c-3.4,1.7-2.3,6.4-2.3,6.4s-7,0.8-9.2-2.3c0,0-1.3-11.4,4.4-12.9C17.3,38.6,33.9,36.5,30.2,48.8L30.2,48.8z M31.6,19.3
		c0,0-3.4-1.6-4.6-0.9c-2.7,1.4-1.8,5.2-1.8,5.2s-5.6,0.7-7.5-1.8c0,0-1.1-9.2,3.4-10.4C21.1,11.3,34.4,9.4,31.6,19.3L31.6,19.3z"/>
</g>
</svg>
