<?xml version="1.0" encoding="utf-8"?>
<!-- Generator: Adobe Illustrator 28.1.0, SVG Export Plug-In . SVG Version: 6.00 Build 0)  -->
<svg version="1.0" id="Layer_1" xmlns="http://www.w3.org/2000/svg" xmlns:xlink="http://www.w3.org/1999/xlink" x="0px" y="0px"
	 viewBox="0 0 186.7 53.4" style="enable-background:new 0 0 186.7 53.4;" xml:space="preserve">
<style type="text/css">
	.st0{fill:#F3EC0F;stroke:#311F7F;stroke-width:2.5;stroke-miterlimit:10;}
	.st1{fill:#FF7F00;stroke:#311F7F;stroke-width:2.5;stroke-miterlimit:10;}
</style>
<path id="e" class="st0" d="M171.8,51.9c1.2-0.3,4.1-2.7,1.1-5c-1.5-1.2-6-4.8-3.3-4.7c1.7-0.2,6.3,3.7,7.7-1.4
	c0.2-3.7-4.7-4.1-4.8-4.3c-0.2-0.3,0.2-3.1,2-3.5c2.2-0.5,4.4,2.8,7,1.5c5.5-2.7,3.7-6.6,3.1-7c-25.8-17.4-27.5,7.1-25.9,16.4
	c0.4,2.1,1.8,3.9,3.8,4.8l5.9,2.7C169.4,52,170.7,52.2,171.8,51.9z"/>
<path id="l" class="st0" d="M151.5,34.5c4.1-8.2,6.1-17.6,2.4-20c-4-2.6-10.6,5.2-13.7,15.2c-2.1,6.7-1.8,12.1,0.1,14.2
	c1.2,1.7,4,3.5,7.3,4.7c4.5,1.5,8.7,1.4,9.9-0.2c1.2-1.8-3.1-8.2-8-10.3C149.4,38.1,150.4,36.7,151.5,34.5z"/>
<path id="p" class="st0" d="M114.6,47.1c4.2-0.5,5.5-4.2,5.5-4.2c0.2-0.3,0.5-2.1,1.1-1.9c3.4,1.2,10,5.1,16.3-7.3
	c13.9-27.3-38.2-55-30.3,6.4C107.2,40.1,108.1,48.1,114.6,47.1z M122.1,33.3c-6.1-5.6,1.9-9.3,3-9.1c3.1,0.6,3.5,1.4,3.4,4.5
	C128.4,31.9,124,35.1,122.1,33.3z"/>
<path id="r" class="st1" d="M94,46c2.8-0.2,4.3-2.7,2.6-4.6l-4.2-3.3c-0.5-1.3,1.2-1.7,1.9-1.9c5.3-1.4,15.1-10.2,8.5-23.2
	C93.8-4.6,67.6-3,68.2,21.6c1,10.3,6.7,21.3,12.4,24.8c1.5,0.9,6,2.5,6.3-0.2l0.1-4.2C87,41.8,94,46,94,46z M86,33.7
	c-3.6,1-6-6.3-1.9-7.7c2.1-0.7,6.6-2.3,6,4.3C89.8,33.5,88,33.2,86,33.7L86,33.7z"/>
<path id="u" class="st1" d="M53.7,39.6c4.7-1,2.1-3.6,2.8-16c0.2-3.7,5.7-10.2,9-3.6c0.8-0.1,2.3,20.6-4.5,25.6
	c-5.1,3.8-10.3,2.9-14.1-0.5c-4.2-3.8-9.3-14.8-9.3-19.5c0-5.1,5-8.9,9-5c1.3,1.3,2.1,3,2.2,4.9C49.3,29.9,50.6,40.3,53.7,39.6z"/>
<path id="b" class="st1" d="M36.3,23.3c-0.6-3.8-4.2-17.6-24-9.6c0,0-14.9,4.2-10.2,13.2c0,0,9.6,19.6,14.3,22.8
	c4.3,3,8.3,2,10.7,1.3s13.6-4.1,6.8-16.7C33.9,34.3,36.9,26.8,36.3,23.3L36.3,23.3z M24.9,44c-1.7,0.6-4.4-0.5-4.8-1.6
	s0.3-3.7,2.1-4.4s4,0.9,4.3,2.1S26.6,43.4,24.9,44z M22,31.8c-1.9,0.7-4.8-0.8-5.3-2.3c-0.5-1.6,0-4.9,2.1-5.8s4.7,1.3,5.2,2.9
	S23.9,31.1,22,31.8z"/>
</svg>
