<?xml version="1.0" encoding="UTF-8"?>
<svg id="Layer_1" data-name="Layer 1" xmlns="http://www.w3.org/2000/svg" viewBox="0 0 172.09 90.46">
  <defs>
    <style>
      .cls-1 {
        fill: #f3ec0f;
      }

      .cls-1, .cls-2 {
        stroke-width: 0px;
      }

      .cls-2 {
        fill: #ff7f00;
      }
    </style>
  </defs>
  <path id="u" class="cls-2" d="M78.61,48.44c.15,4.41-.36,8.32-.62,12.24-.2,2.93-.31,5.86-.59,8.78-.08.79-.17,1.58-.57,2.29-.82,1.49-2.85,1.92-4.06.72-.69-.69-1.14-.59-1.83-.1-3.95,2.76-8.1,2.58-12.2.48-2.77-1.42-4.34-3.96-5.38-6.81-.79-2.17-1.12-4.44-1.17-6.74-.08-3.88-.19-7.77-.2-11.65,0-1.61.15-3.24.89-4.73.72-1.45,1.77-2.56,3.33-3.1,1.04-.36,2,.02,2.61.94.9,1.37,1.02,2.95.99,4.5-.08,4.31-.28,8.62-.4,12.92-.05,1.83-.13,3.66.48,5.45,1.14,3.34,5.32,4.36,7.89,1.92,1.7-1.62,2.45-3.62,2.57-5.9.14-2.66.16-5.32.36-7.97.21-2.83,0-5.69.67-8.49.12-.5.26-1.01.46-1.49.7-1.77,1.69-2.47,3.27-2.38,1.44.08,2.67,1.2,3.12,2.81.33,1.19.39,2.4.37,3.63-.01,1.04,0,2.08,0,2.66ZM55.45,43.15c-.62.38-.77.82-.9,1.25-.5,1.62-.74,3.28-.72,4.97.05,4.28.14,8.56.26,12.84.04,1.3.42,2.53,1.25,3.57.19.23.37.59.72.4.39-.22.17-.59.05-.89-.43-1.08-.93-2.13-.95-3.32-.09-4.74-.19-9.48-.28-14.22-.03-1.49-.02-2.99.58-4.6ZM74.93,41.58c-.92.24-1.47.81-1.83,1.59-.51,1.13-.74,2.33-.73,3.56,0,3.33.04,6.67.04,10,0,1.07-.08,2.14-.1,3.21,0,.26-.03.62.33.66.29.03.36-.3.42-.52.23-.79.41-1.59.4-2.43-.05-3.36-.06-6.73-.11-10.09-.03-2.13,0-4.24,1.57-5.98Z"/>
  <path id="b" class="cls-2" d="M24.95,71.54c-5.27-.37-9.63-2.13-12.93-6.12-.35-.42-.7-1.04-1.36-.78-.62.24-.53.96-.58,1.49-.26,2.48-1.16,4.48-3.93,4.86-2.14.29-4.21-1.54-5.12-4.5-1.15-3.71-.49-7.55-.54-11.33C.28,40.37.82,25.56.03,10.76-.12,7.99.24,5.25,1.7,2.77,2.67,1.11,4.06-.09,6.03,0c2.02.1,3.17,1.57,3.89,3.33,1.65,4.07,1.23,8.4,1.43,12.64.17,3.6.07,7.21.09,10.82,0,.65-.2,1.48.52,1.78.7.29,1.21-.38,1.7-.81,3.31-2.91,6.75-5.59,11.31-6.19,11.77-1.56,20.8,2.96,24.48,14.46,4.05,12.68.58,24.44-8.89,31.47-4.73,3.51-10,4.88-15.61,4.03ZM20.44,48.93c-.76,7.05,3.36,12.72,9.7,13.36,6.09.62,11.28-4.47,12.05-11.79.65-6.26-3.45-11.8-9.53-12.38-5.29-.51-11.93,3.39-12.22,10.81ZM14.12,36.56c.97-1.28,1.58-2.07,2.18-2.86,4.8-6.34,10.76-8.37,17.67-6.08.87.29,2.15,1.44,2.69-.02.54-1.46-1.14-1.73-2.09-2.16-7.9-3.53-17.9,1.65-20.45,11.12Z"/>
  <path id="l" class="cls-2" d="M137.13,53.9c.14-8.27.26-26.46.4-33.96.02-1,.27-1.97.71-2.85.85-1.71,2.41-2.63,3.92-2.34,1.79.34,2.41,1.7,2.72,3.28.81,4.08.14,18.88.02,22.96-.22,7.73-.84,15.45-.93,23.19-.02,1.76-.13,3.51-.26,5.27-.17,2.26-1.52,3.92-3.09,3.9-1.71-.02-3.11-1.45-3.34-3.68-.56-5.5.1-11.01-.16-15.74Z"/>
  <path id="p" class="cls-2" d="M103.68,36.02c.04.22.09.44.13.66.06.81,0,1.64.33,2.42.55-.09.8-.53,1.1-.88,4.89-5.68,11.27-6.54,17.86-4.6,7.68,2.26,12.06,8.18,13.45,15.86,1.39,7.7-.37,14.87-6.46,20.26-5.91,5.23-15.4,4.85-21.95-.54-.9-.74-1.77-1.52-2.81-2.43-.08.53-.15.81-.16,1.09-.04,3.74-.05,7.48-.09,11.21-.04,3.02.04,6.07-1.2,8.93-.54,1.25-1.32,2.27-2.81,2.43-1.56.17-2.6-.68-3.4-1.85-1.29-1.89-1.68-4.05-1.57-6.28.58-12.22.02-24.44.2-36.66.04-2.95-.46-5.95.45-8.85.53-1.69,1.52-3.01,3.42-3.2,1.79-.18,2.87.86,3.51,2.43ZM125.63,45.98l.02.02c-1.59-1.71-3.49-2.63-5.88-2.25-3.91.62-6.85,3.8-7.15,7.74-.43,5.62,3.52,10.34,8.48,10.16,3.43-.13,6.5-2.46,7.59-5.75,1.1-3.32-.22-7.6-3.06-9.92ZM104.92,46.55c.39-.02.42-.35.54-.61,3.52-8.29,11.38-12.08,19.71-7.36.51.29,1.07.46,1.37-.18.33-.7-.36-.89-.79-1.14-2.25-1.32-4.7-2.05-7.29-2.03-7.37.05-12.47,4.38-13.53,11.32Z"/>
  <path id="e" class="cls-2" d="M162.83,66.51c.08.02.14,0,.18-.08,1.58-.63,2.75-2.01,4.47-2.38,2-.43,3.2.66,2.93,2.69-.11.88-.56,1.59-1.06,2.29-3.45,4.82-11.15,6.32-16.59,3.24-10.14-5.76-11.47-21.95-2.41-29.3,6.2-5.03,16.29-3.56,20.23,2.95,2.3,3.8,2.01,8.07-1.18,10.59-4.6,3.63-9.74,5.47-15.6,3.2-1.29-.5-1.43-.05-1.4,1.07.17,6.08,5.18,8.84,10.42,5.74ZM154.92,49.13c-1.59,2.42-.9,4.81,1.69,5.86,2,.81,4.03.82,6.01.02,1.5-.61,2.79-1.51,3-3.32.21-1.86-.55-3.31-2.01-4.4-2.56-1.94-7.11-.96-8.7,1.86h0ZM163.94,56.08c-3.24,1.33-6.21,1.55-9.37.54,2.96,2.21,7.19,2.06,9.37-.54Z"/>
  <path id="r" class="cls-2" d="M90.17,42.17c1.28-1.95,2.53-3.43,4.41-4.18,3.73-1.49,7.65-.63,9.38,3.53.42,1,.38,2.31-.52,3.23-1,1.01-2.18.67-3.33.21-3.85-1.52-6.54-.8-8.52,2.43-.94,1.54-1.65,3.22-1.78,5.09-.35,5.43-.74,10.85-1.1,16.28-.07,1.1-.23,2.17-.69,3.17-.41.89-1.09,1.62-2.11,1.61-.95-.01-1.34-.88-1.67-1.64-.95-2.24-1.02-4.66-1.15-7.02-.42-7.43-1.07-14.87-.57-22.33.06-.92.03-1.85.39-2.75.68-1.69,1.93-2.69,3.42-2.64,1.58.06,2.93,1.22,3.4,2.94.15.54.23,1.11.43,2.07ZM92.36,41.77c.48-.28.65-.38.82-.49,2.1-1.33,4.21-2.56,6.77-1.16.35.19.75.16.92-.26.18-.44-.22-.61-.5-.84-2.01-1.66-6.59.1-8.02,2.75Z"/>
  <g id="shine">
    <path class="cls-1" d="M140.4,22.07c-.49,7.35-.39,21.58-.11,28.94.02.57.05,1.35-.73,1.34-.79-.01-.73-.83-.69-1.37.43-6.47-.31-21.5.47-27.95.12-.98.29-.95,1.06-.95Z"/>
    <path class="cls-1" d="M138.95,54.92c.13-.56.12-1.32.88-1.28.7.04.8.75.8,1.33,0,.61-.22,1.27-.9,1.27-.77,0-.68-.77-.78-1.32Z"/>
    <path class="cls-1" d="M104.92,46.55c1.06-6.94,6.16-11.27,13.53-11.32,2.59-.02,5.04.71,7.29,2.03.43.25,1.13.44.79,1.14-.3.63-.85.47-1.37.18-8.33-4.72-16.19-.93-19.71,7.36-.11.26-.15.59-.54.61Z"/>
    <path class="cls-1" d="M99.08,83.93c-1.56-7.01-.93-31.93.53-32.95.45,6.76.73,9.18.27,20.17-.07,2.99.13,5.99.16,8.99.01,1.21.17,2.49-.96,3.8Z"/>
    <path class="cls-1" d="M55.45,43.15c-.6,1.61-.61,3.1-.58,4.6.09,4.74.19,9.48.28,14.22.02,1.19.52,2.25.95,3.32.12.31.34.67-.05.89-.35.2-.53-.16-.72-.4-.83-1.05-1.21-2.27-1.25-3.57-.12-4.28-.2-8.56-.26-12.84-.02-1.69.21-3.35.72-4.97.13-.43.29-.87.9-1.25Z"/>
    <path class="cls-1" d="M74.93,41.58c-1.57,1.74-1.6,3.84-1.57,5.98.04,3.36.06,6.73.11,10.09.01.84-.17,1.64-.4,2.43-.07.23-.14.55-.42.52-.36-.03-.34-.4-.33-.66.02-1.07.1-2.14.1-3.21,0-3.33-.03-6.67-.04-10,0-1.23.22-2.43.73-3.56.35-.78.91-1.35,1.83-1.59Z"/>
    <path class="cls-1" d="M72.07,62.29c.29.04.41.02.45.07,1.01,1.25,1.05,2.59.27,3.95-.25.44-.89.53-1.13.13-.88-1.49-.12-2.82.41-4.15Z"/>
    <path class="cls-1" d="M147.19,58.73c-1.18-3.07-.88-6.13.44-9.07,2.03-4.53,5.38-7.42,10.45-7.99.42-.05,1.11-.31,1.17.4.06.59-.57.72-1.05.78-7.22.89-11.22,7.2-11.04,14.61.01.42.02.84.03,1.26Z"/>
    <path class="cls-1" d="M163.94,56.08c-2.19,2.6-6.42,2.75-9.37.54,3.17,1.01,6.14.79,9.37-.54Z"/>
    <path class="cls-1" d="M86.2,40.26c.25,2.16-.36,3.67-.57,5.24-.63,4.74-.48,9.46-.03,14.2.08.88.42,2.38-.44,2.46-1.03.1-.76-1.41-.83-2.21-.5-5.14-.28-10.27.3-15.39.16-1.38.79-2.6,1.58-4.29Z"/>
    <path class="cls-1" d="M92.36,41.77c1.43-2.65,6.01-4.41,8.02-2.75.28.23.68.4.5.84-.17.42-.57.45-.92.26-2.57-1.4-4.68-.17-6.77,1.16-.17.11-.35.21-.82.49Z"/>
    <path class="cls-1" d="M14.12,36.56c2.55-9.47,12.55-14.65,20.45-11.12.95.42,2.63.69,2.09,2.16-.54,1.46-1.82.31-2.69.02-6.92-2.29-12.87-.26-17.67,6.08-.6.79-1.2,1.58-2.18,2.86Z"/>
    <path class="cls-1" d="M4.44,50.01c-.57-13.76-1.54-27.57.31-42.33,1.57,4.4,1.56,38.77-.31,42.33Z"/>
    <ellipse class="cls-1" cx="41.65" cy="30.8" rx="1.54" ry="2.28" transform="translate(-7.78 46.3) rotate(-53.89)"/>
  </g>
</svg>