<?xml version="1.0" encoding="utf-8"?>
<!-- Generator: Adobe Illustrator 28.1.0, SVG Export Plug-In . SVG Version: 6.00 Build 0)  -->
<svg version="1.1" id="burple_x5F_6" xmlns="http://www.w3.org/2000/svg" xmlns:xlink="http://www.w3.org/1999/xlink" x="0px"
	 y="0px" viewBox="0 0 172.1 90.5" style="enable-background:new 0 0 172.1 90.5;" xml:space="preserve">
<style type="text/css">
	.st0{fill:#FF7F00;}
	.st1{fill:#F3EC0F;}
</style>
<path id="u" class="st0" d="M78.6,48.4c0.2,4.4-0.4,8.3-0.6,12.2c-0.2,2.9-0.3,5.9-0.6,8.8c-0.1,0.8-0.2,1.6-0.6,2.3
	c-0.8,1.5-2.8,1.9-4.1,0.7c-0.7-0.7-1.1-0.6-1.8-0.1c-3.9,2.8-8.1,2.6-12.2,0.5c-2.8-1.4-4.3-4-5.4-6.8c-0.8-2.2-1.1-4.4-1.2-6.7
	c-0.1-3.9-0.2-7.8-0.2-11.7c0-1.6,0.2-3.2,0.9-4.7c0.7-1.5,1.8-2.6,3.3-3.1c1-0.4,2,0,2.6,0.9c0.9,1.4,1,3,1,4.5
	c-0.1,4.3-0.3,8.6-0.4,12.9c0,1.8-0.1,3.7,0.5,5.5c1.1,3.3,5.3,4.4,7.9,1.9c1.7-1.6,2.4-3.6,2.6-5.9c0.1-2.7,0.2-5.3,0.4-8
	c0.2-2.8,0-5.7,0.7-8.5c0.1-0.5,0.3-1,0.5-1.5c0.7-1.8,1.7-2.5,3.3-2.4c1.4,0.1,2.7,1.2,3.1,2.8c0.3,1.2,0.4,2.4,0.4,3.6
	C78.6,46.8,78.6,47.8,78.6,48.4L78.6,48.4z M55.5,43.2c-0.6,0.4-0.8,0.8-0.9,1.2c-0.5,1.6-0.7,3.3-0.7,5c0,4.3,0.1,8.6,0.3,12.8
	c0,1.3,0.4,2.5,1.2,3.6c0.2,0.2,0.4,0.6,0.7,0.4c0.4-0.2,0.2-0.6,0-0.9c-0.4-1.1-0.9-2.1-1-3.3c-0.1-4.7-0.2-9.5-0.3-14.2
	C54.8,46.3,54.9,44.8,55.5,43.2L55.5,43.2z M74.9,41.6c-0.9,0.2-1.5,0.8-1.8,1.6c-0.5,1.1-0.7,2.3-0.7,3.6c0,3.3,0,6.7,0,10
	c0,1.1-0.1,2.1-0.1,3.2c0,0.3,0,0.6,0.3,0.7c0.3,0,0.4-0.3,0.4-0.5c0.2-0.8,0.4-1.6,0.4-2.4c-0.1-3.4-0.1-6.7-0.1-10.1
	C73.3,45.4,73.3,43.3,74.9,41.6L74.9,41.6z"/>
<path id="b" class="st0" d="M25,71.5c-5.3-0.4-9.6-2.1-12.9-6.1c-0.4-0.4-0.7-1-1.4-0.8c-0.6,0.2-0.5,1-0.6,1.5
	c-0.3,2.5-1.2,4.5-3.9,4.9C4,71.3,1.9,69.4,1,66.5c-1.1-3.7-0.5-7.5-0.5-11.3C0.3,40.4,0.8,25.6,0,10.8c-0.1-2.8,0.2-5.5,1.7-8
	C2.7,1.1,4.1-0.1,6,0c2,0.1,3.2,1.6,3.9,3.3c1.6,4.1,1.2,8.4,1.4,12.6c0.2,3.6,0.1,7.2,0.1,10.8c0,0.6-0.2,1.5,0.5,1.8
	c0.7,0.3,1.2-0.4,1.7-0.8c3.3-2.9,6.7-5.6,11.3-6.2c11.8-1.6,20.8,3,24.5,14.5c4,12.7,0.6,24.4-8.9,31.5C35.8,71,30.6,72.4,25,71.5
	L25,71.5z M20.4,48.9c-0.8,7,3.4,12.7,9.7,13.4c6.1,0.6,11.3-4.5,12-11.8c0.7-6.3-3.5-11.8-9.5-12.4C27.4,37.6,20.7,41.5,20.4,48.9z
	 M14.1,36.6c1-1.3,1.6-2.1,2.2-2.9c4.8-6.3,10.8-8.4,17.7-6.1c0.9,0.3,2.2,1.4,2.7,0c0.5-1.5-1.1-1.7-2.1-2.2
	C26.7,21.9,16.7,27.1,14.1,36.6z"/>
<path id="l" class="st0" d="M137.1,53.9c0.1-8.3,0.3-26.5,0.4-34c0-1,0.3-2,0.7-2.9c0.9-1.7,2.4-2.6,3.9-2.3
	c1.8,0.3,2.4,1.7,2.7,3.3c0.8,4.1,0.1,18.9,0,23c-0.2,7.7-0.8,15.5-0.9,23.2c0,1.8-0.1,3.5-0.3,5.3c-0.2,2.3-1.5,3.9-3.1,3.9
	c-1.7,0-3.1-1.4-3.3-3.7C136.7,64.2,137.4,58.7,137.1,53.9L137.1,53.9z"/>
<path id="p" class="st0" d="M103.7,36c0,0.2,0.1,0.4,0.1,0.7c0.1,0.8,0,1.6,0.3,2.4c0.6-0.1,0.8-0.5,1.1-0.9
	c4.9-5.7,11.3-6.5,17.9-4.6c7.7,2.3,12.1,8.2,13.5,15.9c1.4,7.7-0.4,14.9-6.5,20.3c-5.9,5.2-15.4,4.8-21.9-0.5
	c-0.9-0.7-1.8-1.5-2.8-2.4c-0.1,0.5-0.2,0.8-0.2,1.1c0,3.7-0.1,7.5-0.1,11.2c0,3,0,6.1-1.2,8.9c-0.5,1.2-1.3,2.3-2.8,2.4
	c-1.6,0.2-2.6-0.7-3.4-1.8c-1.3-1.9-1.7-4.1-1.6-6.3c0.6-12.2,0-24.4,0.2-36.7c0-3-0.5-6,0.4-8.9c0.5-1.7,1.5-3,3.4-3.2
	C102,33.4,103,34.4,103.7,36z M125.6,46L125.6,46c-1.6-1.7-3.5-2.6-5.9-2.2c-3.9,0.6-6.8,3.8-7.2,7.7c-0.4,5.6,3.5,10.3,8.5,10.2
	c3.4-0.1,6.5-2.5,7.6-5.8C129.8,52.6,128.5,48.3,125.6,46z M104.9,46.5c0.4,0,0.4-0.3,0.5-0.6c3.5-8.3,11.4-12.1,19.7-7.4
	c0.5,0.3,1.1,0.5,1.4-0.2c0.3-0.7-0.4-0.9-0.8-1.1c-2.2-1.3-4.7-2-7.3-2C111.1,35.3,106,39.6,104.9,46.5L104.9,46.5z"/>
<path id="e" class="st0" d="M162.8,66.5c0.1,0,0.1,0,0.2-0.1c1.6-0.6,2.8-2,4.5-2.4c2-0.4,3.2,0.7,2.9,2.7c-0.1,0.9-0.6,1.6-1.1,2.3
	c-3.4,4.8-11.1,6.3-16.6,3.2c-10.1-5.8-11.5-22-2.4-29.3c6.2-5,16.3-3.6,20.2,3c2.3,3.8,2,8.1-1.2,10.6c-4.6,3.6-9.7,5.5-15.6,3.2
	c-1.3-0.5-1.4,0-1.4,1.1C152.6,66.9,157.6,69.6,162.8,66.5L162.8,66.5z M154.9,49.1c-1.6,2.4-0.9,4.8,1.7,5.9c2,0.8,4,0.8,6,0
	c1.5-0.6,2.8-1.5,3-3.3c0.2-1.9-0.6-3.3-2-4.4C161.1,45.4,156.5,46.3,154.9,49.1L154.9,49.1L154.9,49.1z M163.9,56.1
	c-3.2,1.3-6.2,1.5-9.4,0.5C157.5,58.8,161.8,58.7,163.9,56.1z"/>
<path id="r" class="st0" d="M90.2,42.2c1.3-2,2.5-3.4,4.4-4.2c3.7-1.5,7.7-0.6,9.4,3.5c0.4,1,0.4,2.3-0.5,3.2c-1,1-2.2,0.7-3.3,0.2
	c-3.8-1.5-6.5-0.8-8.5,2.4c-0.9,1.5-1.7,3.2-1.8,5.1c-0.3,5.4-0.7,10.8-1.1,16.3c-0.1,1.1-0.2,2.2-0.7,3.2c-0.4,0.9-1.1,1.6-2.1,1.6
	c-0.9,0-1.3-0.9-1.7-1.6c-0.9-2.2-1-4.7-1.2-7C82.7,57.4,82,50,82.5,42.5c0.1-0.9,0-1.8,0.4-2.8c0.7-1.7,1.9-2.7,3.4-2.6
	c1.6,0.1,2.9,1.2,3.4,2.9C89.9,40.6,90,41.2,90.2,42.2L90.2,42.2z M92.4,41.8c0.5-0.3,0.7-0.4,0.8-0.5c2.1-1.3,4.2-2.6,6.8-1.2
	c0.3,0.2,0.8,0.2,0.9-0.3c0.2-0.4-0.2-0.6-0.5-0.8C98.4,37.4,93.8,39.1,92.4,41.8L92.4,41.8z"/>
<g id="shine">
	<path class="st1" d="M140.4,22.1c-0.5,7.4-0.4,21.6-0.1,28.9c0,0.6,0.1,1.3-0.7,1.3c-0.8,0-0.7-0.8-0.7-1.4
		c0.4-6.5-0.3-21.5,0.5-28C139.5,22.1,139.6,22.1,140.4,22.1L140.4,22.1z"/>
	<path class="st1" d="M138.9,54.9c0.1-0.6,0.1-1.3,0.9-1.3c0.7,0,0.8,0.8,0.8,1.3c0,0.6-0.2,1.3-0.9,1.3
		C139,56.2,139.1,55.5,138.9,54.9L138.9,54.9z"/>
	<path class="st1" d="M104.9,46.5c1.1-6.9,6.2-11.3,13.5-11.3c2.6,0,5,0.7,7.3,2c0.4,0.2,1.1,0.4,0.8,1.1c-0.3,0.6-0.8,0.5-1.4,0.2
		c-8.3-4.7-16.2-0.9-19.7,7.4C105.3,46.2,105.3,46.5,104.9,46.5L104.9,46.5z"/>
	<path class="st1" d="M99.1,83.9c-1.6-7-0.9-31.9,0.5-33c0.4,6.8,0.7,9.2,0.3,20.2c-0.1,3,0.1,6,0.2,9
		C100.1,81.3,100.2,82.6,99.1,83.9L99.1,83.9z"/>
	<path class="st1" d="M55.5,43.2c-0.6,1.6-0.6,3.1-0.6,4.6c0.1,4.7,0.2,9.5,0.3,14.2c0,1.2,0.5,2.2,1,3.3c0.1,0.3,0.3,0.7,0,0.9
		c-0.3,0.2-0.5-0.2-0.7-0.4c-0.8-1.1-1.2-2.3-1.2-3.6c-0.1-4.3-0.2-8.6-0.3-12.8c0-1.7,0.2-3.3,0.7-5C54.7,44,54.8,43.5,55.5,43.2
		L55.5,43.2z"/>
	<path class="st1" d="M74.9,41.6c-1.6,1.7-1.6,3.8-1.6,6c0,3.4,0.1,6.7,0.1,10.1c0,0.8-0.2,1.6-0.4,2.4c-0.1,0.2-0.1,0.5-0.4,0.5
		c-0.4,0-0.3-0.4-0.3-0.7c0-1.1,0.1-2.1,0.1-3.2c0-3.3,0-6.7,0-10c0-1.2,0.2-2.4,0.7-3.6C73.5,42.4,74,41.8,74.9,41.6L74.9,41.6z"/>
	<path class="st1" d="M72.1,62.3c0.3,0,0.4,0,0.4,0.1c1,1.2,1.1,2.6,0.3,3.9c-0.2,0.4-0.9,0.5-1.1,0.1
		C70.8,64.9,71.5,63.6,72.1,62.3z"/>
	<path class="st1" d="M147.2,58.7c-1.2-3.1-0.9-6.1,0.4-9.1c2-4.5,5.4-7.4,10.4-8c0.4,0,1.1-0.3,1.2,0.4c0.1,0.6-0.6,0.7-1.1,0.8
		c-7.2,0.9-11.2,7.2-11,14.6C147.2,57.9,147.2,58.3,147.2,58.7L147.2,58.7z"/>
	<path class="st1" d="M163.9,56.1c-2.2,2.6-6.4,2.8-9.4,0.5C157.7,57.6,160.7,57.4,163.9,56.1z"/>
	<path class="st1" d="M86.2,40.3c0.2,2.2-0.4,3.7-0.6,5.2c-0.6,4.7-0.5,9.5,0,14.2c0.1,0.9,0.4,2.4-0.4,2.5c-1,0.1-0.8-1.4-0.8-2.2
		c-0.5-5.1-0.3-10.3,0.3-15.4C84.8,43.2,85.4,42,86.2,40.3L86.2,40.3z"/>
	<path class="st1" d="M92.4,41.8c1.4-2.7,6-4.4,8-2.8c0.3,0.2,0.7,0.4,0.5,0.8c-0.2,0.4-0.6,0.5-0.9,0.3c-2.6-1.4-4.7-0.2-6.8,1.2
		C93,41.4,92.8,41.5,92.4,41.8L92.4,41.8z"/>
	<path class="st1" d="M14.1,36.6c2.6-9.5,12.6-14.6,20.5-11.1c1,0.4,2.6,0.7,2.1,2.2c-0.5,1.5-1.8,0.3-2.7,0
		c-6.9-2.3-12.9-0.3-17.7,6.1C15.7,34.5,15.1,35.3,14.1,36.6z"/>
	<path class="st1" d="M4.4,50C3.9,36.2,2.9,22.4,4.8,7.7C6.3,12.1,6.3,46.4,4.4,50z"/>
	<ellipse transform="matrix(0.5893 -0.8079 0.8079 0.5893 -7.7818 46.2972)" class="st1" cx="41.6" cy="30.8" rx="1.5" ry="2.3"/>
</g>
</svg>
