<?xml version="1.0" encoding="UTF-8"?>
<svg id="Layer_1" data-name="Layer 1" xmlns="http://www.w3.org/2000/svg" viewBox="0 0 184.93 70.73">
  <defs>
    <style>
      .cls-1 {
        fill: #f3ec0f;
      }

      .cls-1, .cls-2, .cls-3 {
        stroke-width: 0px;
      }

      .cls-2 {
        fill: #311f7f;
      }

      .cls-3 {
        fill: #ff7f00;
      }
    </style>
  </defs>
  <path id="le" class="cls-2" d="M183.15,19.34c-9.72-.4-43.1-1.31-43.04,5.95,0,0-3.79,17.12-6.51,28.66-6.33-.39-18.05-1.25-17.76-2.27.39-1.38,15.77-35.63,15.54-37.18-.19-1.25-15.84,1.41-21.55,2.43-1.24.22-2.44,1.38-2.75,2.63l-2.82,11.33c-3.39,13.61-12.1,31.25-10.7,33.57,1.4,2.33,18.54,4.22,18.54,4.22,0,0,16.46,2.89,18.6,1.83.78-.38,1.85-2.56,2.91-5.2,6.81,1.2,24.62,1.18,24.62,1.18,0,0,2.41-.09,4.87-6.11l.47-1.16c.45-1.11-.7-1.98-2.46-1.87-4.84.29-13.13.68-13.54-.15-.56-1.16,0-8.17,1.83-8.71,1.84-.54,15.93-.29,15.93-.29,0,0,2.28-.2,3.84-2.66.89-1.41,1.63-3.32,2.11-4.72.36-1.05-.59-1.84-2.17-1.82-4.87.04-14.33.08-15.02-.16-.91-.31-.08-6.93,1.73-7.59,1.41-.51,15.46-1.31,22.17-1.67,1.84-.1,3.77-1.18,4.29-2.4l2.55-6.05c.41-.98-.28-1.73-1.66-1.79Z"/>
  <path id="rp" class="cls-1" d="M70.6,10.28s-2.97,13.99-5.57,26.69c-.32-.75-.76-1.5-1.34-2.24-4.79-6.06-14.69-2.88-19.13-1-1.38.58-2.34,2.05-2.28,3.51l.96,25.64c.03.87.71,1.54,1.59,1.56l3.24.08c1.14.03,2.14-.95,2.11-2.07l-.12-4.44c-.01-.43.58-.63.77-.27l2.59,4.84c.39.72,1.15,1.17,2.03,1.19l5.89.13c.13,0,.24-.02.36-.04.15.05.3.09.47.11l9.01,1.04c1.73.2,3.53-.88,4.06-2.47l4.72-14.13c.3-.89,1.31-1.55,2.29-1.49,5.91.37,26.58-.18,32.28-24.34C122.21-9.93,74.79-.96,70.6,10.28ZM51.41,47.81c-.96.4-1.99.04-2.26-.87-.49-1.65-.12-4.48.16-6.13.13-.76.79-1.39,1.53-1.48,2.07-.24,5.9-.24,5.25,3.18-.6,3.14-3.15,4.66-4.68,5.3ZM56.5,52.75c1.93-.83,4.5-2.79,6.44-5.32-.66,3.37-1.19,6.17-1.46,7.9l-.65,4.01-4.74-5.2c-.38-.41-.17-1.14.42-1.39ZM84.36,35.1c-1.56.43-2.76-.51-2.51-1.92l2.16-12.15c.26-1.46,1.98-2.76,3.39-2.52,3.16.55,7.91,2.22,8.52,7.14.65,5.3-7.17,8.25-11.55,9.45Z"/>
  <path id="bu" class="cls-3" d="M43.99,33.33c-.06-.68-.51-1.12-1.08-1.06l-3.06.31c-.69.07-1.29.84-1.31,1.69-.3,10.47-.7,17.58-6.4,18.43-4.81.72-5.93-12.9-6.17-17.36-.04-.77-.52-1.3-1.12-1.24l-2.94.3c-.56.06-1.02.72-1.02,1.45,0,2,.17,5.78.71,9.72-4.43-3.93-11.56-3.01-11.56-3.01,0,0-.4-.54,2.16-1.66,2.63-1.14,10.39-5.84,8.27-14.41-2.16-8.74-17-5.89-17-5.89,0,0-2.87.5-3.47,3.97l.38,36.91c.01,1.02.7,1.85,1.55,1.87l13.46.33c1.14.03,2.3-.24,3.35-.82,1.89-1.05,4.77-3.15,5.83-6.6,2.97,5.29,8.35,6.67,14.78,1.85,5.35-4,5.01-20.21,4.64-24.78ZM5.43,35.36v-6.94c.02-.73.57-1.35,1.12-1.22,1.59.36,4.33,1.4,4.12,4.17-.2,2.6-2.55,4.21-4.03,4.97-.6.31-1.21-.19-1.21-.98ZM12.59,53.24c-.25,2.87-3.03,4.4-4.76,5.08-.71.27-1.42-.34-1.42-1.22l.03-7.7c0-.82.65-1.45,1.31-1.25,1.87.57,5.1,2.02,4.84,5.09Z"/>
</svg>