<?xml version="1.0" encoding="UTF-8"?>
<svg id="Layer_1" data-name="Layer 1" xmlns="http://www.w3.org/2000/svg" viewBox="0 0 197.44 77.57">
  <defs>
    <style>
      .cls-1 {
        fill: #f3ec0f;
      }

      .cls-1, .cls-2, .cls-3 {
        stroke-width: 0px;
      }

      .cls-2 {
        fill: #311f7f;
      }

      .cls-3 {
        fill: #ff7f00;
      }
    </style>
  </defs>
  <g id="ple">
    <path id="e_back" class="cls-2" d="M184.03,18.23l2.12,1.27c.54.32.95.84,1.15,1.46l2.45,7.61-6.31,2.04,2.41,1.65c.37.26.65.63.79,1.06l2.27,6.96-8.24,2.61,1.4,4.35,6.2-3.91c.78-.49,1.77-.51,2.61-.05l2.79,1.53c.48.27.85.72,1.03,1.27l2.73,8.48-18.29,5.9-5.23-1.83-9.65-30.87,15.17-9.39c.79-.49,2.84-1.09,4.59-.14Z"/>
    <path id="e_front" class="cls-1" d="M184.44,26.13l-2.33-7.21c-.18-1.13-1.55-1.4-2.25-1.01l-18.84,10.25,4.19,9.87h0s8.53,20.1,8.53,20.1l6.07-1.96,12.48-4.03-2.73-8.47c-.23-.71-1.01-1.04-1.59-.67l-10.05,6.34-2.43-8.77,8.49-2.63-1.79-5.53c-.2-.63-.88-.97-1.51-.75l-7,2.42-1.14-4.11,11.88-3.83Z"/>
    <path id="l_back" class="cls-2" d="M155.15,17.45l7.31.84c3.43.97,2.55,4.18,2.41,5.27l-3.65,29.39,8.62-2.66c1.61-.5,3.37-.06,4.56,1.13l1.81,1.81c.61.61.96,1.44.96,2.31v8.01c0,1.36-1.11,2.47-2.47,2.47h-24.28l-3.49-3.99,5.04-41.8,3.17-2.79Z"/>
    <path id="l_front" class="cls-1" d="M155.62,54.68l4.58-34.43c.23-1.7-1.03-3.24-2.75-3.36l-10.35-.68c-1.97-.13-3.6,1.52-3.45,3.49l2.99,37.75h0l.28,4.59h25.53v-9.6c0-1.47-1.42-2.51-2.82-2.08l-14.02,4.33Z"/>
    <path id="p_back" class="cls-2" d="M133.65,1.35s20.8,2.64,22.3,20.41c1.25,14.87-16.85,17.58-23.15,17.13l6.37,29.53c.61,2.82-1.34,5.56-4.21,5.9l-19.1,2.27-6.49-5.84-2.01-66.81s9.84-5.32,26.31-2.59Z"/>
    <path id="p_front" class="cls-1" d="M148.38,13.43c-4.95-20.32-37.76-12.19-41.7-9.82l2.68,67.13,19.5-1.83c2.62-.25,4.45-2.69,3.97-5.27l-5.71-30.4s26.2.52,21.25-19.81ZM124.61,24.47l-3.03-14.68s7.61-2.5,14.17-.45c5.33,1.66,4.17,7.28,4.17,7.28-12.71-5.29-8.52,6.47-8.52,6.47-2.37,2.45-6.78,1.38-6.78,1.38Z"/>
  </g>
  <g id="bur">
    <path id="r_back" class="cls-2" d="M103.77,48.5c1.15-1.39,1.96-2.09,2.04-5.01.31-11.08-11.29-12.66-11.29-12.66-9.59-2.19-18.67,1.5-18.67,1.5l2.25,41.22,2.83,4.01,15.18-1.65c1.78-.25,1.81-2.36,1.37-3.65l-3.82-16.15-3.33-3.85,13.55,15.68,4.35,1.07,7.16-6.52c1.08-1.07,1.43-4.4.16-5.25l-11.79-8.74Z"/>
    <path id="r_front" class="cls-3" d="M110.35,57.36l-13-9.01c3.17-1.67,5.67-4.73,4.21-10.36-3.22-12.44-23.31-7.15-25.71-5.66l2.25,41.22,11.88-1.29c1.65-.18,2.79-1.74,2.46-3.37l-3.38-16.66c-.1-.51.54-.82.87-.43l13.94,16.13,6.8-6.6c1.17-1.14,1.01-3.06-.33-3.98ZM96.77,40.57c-8.34-3.69-5.6,4.53-5.6,4.53-1.56,1.72-4.45.97-4.45.97l-1.98-10.27s5-1.75,9.3-.32c3.5,1.16,2.73,5.09,2.73,5.09Z"/>
    <path id="u_back" class="cls-2" d="M81.12,40.66c-.01-.7,0-2.04-.6-2.38l-5.33-2.56-9.78.02v28.74c.01.74-.58,1.35-1.32,1.36l-2.47-.02c-.32,0-.58-.26-.58-.58l-.08-25.12c0-.8-2.61-3.55-5.79-3.98h-7.32l-.29,29.39c2.09,10.54,20.53,12.48,26.39,9.36s6.96-6.63,7.18-9.06c.21-5.96.07-20,0-25.17Z"/>
    <path id="u_front" class="cls-3" d="M74.5,35.6h-10.19l.02,26.01c.08,4.32-6.78,4.45-6.86.13v-23.26c0-1.29-1.03-2.34-2.29-2.34h-7.6c-.39,0-.63-.02-.8,0h-.31v1.91h.02v22.53s-.77,14.32,14.57,14.32c13.69,0,15.88-9.98,15.91-11.76.04-2.75.04-24.99.04-24.99,0-1.41-1.12-2.55-2.5-2.55Z"/>
    <path id="b_back" class="cls-2" d="M13.78,2.24C11.66,4.9,0,62.1,0,62.1l5.7,9.03s11.65,6.64,31.56-.01c20.96-7,15.88-34.29,4.26-40.22-.52-.27-.26-.68.19-1.06C46.46,25.73,52.64-2.7,15.55,1.89c-.46.06-1.48,0-1.76.35Z"/>
    <path id="b_front" class="cls-3" d="M37.86,30.22c-.46-.25-.56-.84-.21-1.23C41.97,24.28,55.98-2.06,14.46,1.63c-.41.04-.79.23-1.05.55C11.42,4.67,3.2,17.48,0,62.1c0,0,14.45,7.25,33.59.65,18.45-6.36,13.86-27.35,4.27-32.53ZM30.17,48.76s-4.16-2.05-5.76-1.22c-3.36,1.74-2.32,6.38-2.32,6.38,0,0-6.97.75-9.23-2.34,0,0-1.26-11.42,4.43-12.93,0,0,16.57-2.18,12.89,10.11ZM31.59,19.32s-3.36-1.61-4.65-.93c-2.69,1.43-1.81,5.16-1.81,5.16,0,0-5.6.67-7.45-1.8,0,0-1.12-9.18,3.44-10.45,0,0,13.32-1.91,10.47,8.01Z"/>
  </g>
</svg>