<?xml version="1.0" encoding="UTF-8"?>
<svg id="Layer_1" data-name="Layer 1" xmlns="http://www.w3.org/2000/svg" viewBox="0 0 194.06 84.61">
  <defs>
    <style>
      .cls-1 {
        fill: #311f7f;
      }

      .cls-1, .cls-2 {
        stroke-width: 0px;
      }

      .cls-2 {
        fill: #ff7f00;
      }
    </style>
  </defs>
  <g id="chips">
    <polygon class="cls-1" points="52.77 34.23 52.41 24.47 46.16 25.37 48.57 35.18 52.77 34.23"/>
    <polygon class="cls-1" points="88.57 35.49 88.21 25.73 81.95 26.62 84.36 36.43 88.57 35.49"/>
    <polygon class="cls-1" points="59.16 37.26 63.68 28.6 57.81 26.28 55.04 35.99 59.16 37.26"/>
    <polygon class="cls-1" points="97.4 35.05 100.04 25.65 93.81 24.59 93.11 34.67 97.4 35.05"/>
    <polygon class="cls-1" points="118.14 29.45 117.77 19.68 111.52 20.58 113.93 30.39 118.14 29.45"/>
    <polygon class="cls-1" points="126.97 29.01 129.6 19.61 123.38 18.55 122.67 28.63 126.97 29.01"/>
    <polygon class="cls-1" points="150.71 10.92 150.34 1.16 144.09 2.06 146.5 11.86 150.71 10.92"/>
    <polygon class="cls-1" points="159.54 10.49 162.17 1.08 155.95 .02 155.24 10.1 159.54 10.49"/>
    <polygon class="cls-1" points="172.84 38.27 172.48 28.51 166.23 29.41 168.63 39.21 172.84 38.27"/>
    <polygon class="cls-1" points="181.67 37.84 184.31 28.43 178.08 27.37 177.38 37.45 181.67 37.84"/>
    <polygon class="cls-1" points="159.76 20.13 169.25 17.81 167.11 11.86 157.99 16.2 159.76 20.13"/>
    <polygon class="cls-1" points="184.57 44.28 194.06 41.96 191.92 36.02 182.8 40.35 184.57 44.28"/>
    <polygon class="cls-1" points="18.48 38.34 8.71 38.34 9.37 44.62 19.27 42.58 18.48 38.34"/>
    <polygon class="cls-1" points="16.44 25.73 6.67 25.73 7.33 32.01 17.23 29.97 16.44 25.73"/>
    <polygon class="cls-1" points="19.42 53.25 9.65 53.25 10.32 59.53 20.21 57.49 19.42 53.25"/>
  </g>
  <path id="burple_logo" class="cls-2" d="M187.31,52.13s1.88-9.54-2.02-13.43c-3.9-3.9-14.64-5.78-20.15,1.61-4.75,6.38-1.45,15.86,1.74,20.06h-7.45s2.69-32.82,2.26-49.63c0,0-3.82-3.07-18.81-1.78,0,0,1.7,6.79,1.84,11.8l4.67-1.13s3.68,27,2.69,40.74h-7.96c2.33-2.07,4.13-5.32,4.58-10.38,1.53-17.4-12.62-18.42-19.44-15.52v-8.19l-17.74,1.36s.53,2.41.89,5.62c-2.31-.36-6.02.24-12.02,3.05l-.18-3.58s-13.25.09-18.72,1.79c0,0,2.15,3.13,3.31,7.61l4.75-1.52s2.33,11.82,2.42,20.15h-13.83c-.85-10.74,1.34-24.9,1.34-24.9-1.43-.54-14.42-2.06-14.42-2.06l.09,5.37h3.76v14.69s-3.31,4.12-5.55,3.04c-2.24-1.07-1.61-9.76-1.52-16.84.09-7.08-5.1-7.61-5.1-7.61h-14.53c-6.28-5.66-15.82-2.97-15.82-2.97,0,0,.23-18.83.07-29.12-8.81-.96-17.63,0-26.46,2.89,0,0,5.15,4.34,6.28,11.43l7.56-1.45s4.83,34.6,1.77,51.98h17.7s15.93.64,14.16-20.28c-.25-2.94-.85-5.34-1.69-7.33l5.86-.05c-.72,3.76-1.16,18.72-.99,21.58.18,2.87,2.96,5.82,8.06,5.82s9.22-4.84,9.22-4.84l-.09,4.84h37.84v-4.57h-4.66v-18.36s5.82-5.1,6.45-2.24c.63,2.87.63,6.9.63,6.9,0,0,6-.09,8.06-1.07v-8.15s0-.11,0-.28h3.38v41.44l-8.02.09v5.88h24.56v-5.97h-6.48v-13.42h46.07c1.09.16,2.19.17,3.29,0h.08c1.83-.31,3.64-1.11,5.33-2.61,0,0,2.6-2.64,2.55-7.25h-4.97s-1.28,6.48-5.1,4.7c-3.98-1.85-2.69-7.93-2.69-7.93h13.16ZM26.39,61.67c1.77-9.49,0-26.55,0-26.55,4.51.32,9.52-.64,9.49,13.29-.03,14.58-9.49,13.26-9.49,13.26ZM129.17,40.01c6.48-.94,9.04.26,9.12,9.81.09,9.55-9.12,8.36-9.12,8.36v-18.16ZM178.27,40.17c3.13.9,2.69,8.24,2.69,8.24h-6.99c.63-9.05,4.3-8.24,4.3-8.24Z"/>
</svg>