<?xml version="1.0" encoding="utf-8"?>
<!-- Generator: Adobe Illustrator 28.1.0, SVG Export Plug-In . SVG Version: 6.00 Build 0)  -->
<svg version="1.1" id="burple_x5F_5" xmlns="http://www.w3.org/2000/svg" xmlns:xlink="http://www.w3.org/1999/xlink" x="0px"
	 y="0px" viewBox="0 0 184.9 70.7" style="enable-background:new 0 0 184.9 70.7;" xml:space="preserve">
<style type="text/css">
	.st0{fill:#311F7F;}
	.st1{fill:#F3EC0F;}
	.st2{fill:#FF7F00;}
</style>
<path id="le" class="st0" d="M183.1,19.3c-9.7-0.4-43.1-1.3-43,6c0,0-3.8,17.1-6.5,28.7c-6.3-0.4-18.1-1.2-17.8-2.3
	c0.4-1.4,15.8-35.6,15.5-37.2c-0.2-1.2-15.8,1.4-21.6,2.4c-1.2,0.2-2.4,1.4-2.8,2.6l-2.8,11.3c-3.4,13.6-12.1,31.2-10.7,33.6
	c1.4,2.3,18.5,4.2,18.5,4.2s16.5,2.9,18.6,1.8c0.8-0.4,1.9-2.6,2.9-5.2c6.8,1.2,24.6,1.2,24.6,1.2s2.4-0.1,4.9-6.1l0.5-1.2
	c0.4-1.1-0.7-2-2.5-1.9c-4.8,0.3-13.1,0.7-13.5-0.2c-0.6-1.2,0-8.2,1.8-8.7c1.8-0.5,15.9-0.3,15.9-0.3s2.3-0.2,3.8-2.7
	c0.9-1.4,1.6-3.3,2.1-4.7c0.4-1-0.6-1.8-2.2-1.8c-4.9,0-14.3,0.1-15-0.2c-0.9-0.3-0.1-6.9,1.7-7.6c1.4-0.5,15.5-1.3,22.2-1.7
	c1.8-0.1,3.8-1.2,4.3-2.4l2.6-6C185.2,20.2,184.5,19.4,183.1,19.3L183.1,19.3z"/>
<path id="rp" class="st1" d="M70.6,10.3c0,0-3,14-5.6,26.7c-0.3-0.8-0.8-1.5-1.3-2.2c-4.8-6.1-14.7-2.9-19.1-1
	c-1.4,0.6-2.3,2-2.3,3.5l1,25.6c0,0.9,0.7,1.5,1.6,1.6l3.2,0.1c1.1,0,2.1-1,2.1-2.1L50.1,58c0-0.4,0.6-0.6,0.8-0.3l2.6,4.8
	c0.4,0.7,1.2,1.2,2,1.2l5.9,0.1c0.1,0,0.2,0,0.4,0c0.2,0,0.3,0.1,0.5,0.1l9,1c1.7,0.2,3.5-0.9,4.1-2.5L80,48.4
	c0.3-0.9,1.3-1.5,2.3-1.5c5.9,0.4,26.6-0.2,32.3-24.3C122.2-9.9,74.8-1,70.6,10.3z M51.4,47.8c-1,0.4-2,0-2.3-0.9
	c-0.5-1.7-0.1-4.5,0.2-6.1c0.1-0.8,0.8-1.4,1.5-1.5c2.1-0.2,5.9-0.2,5.2,3.2C55.5,45.7,52.9,47.2,51.4,47.8z M56.5,52.8
	c1.9-0.8,4.5-2.8,6.4-5.3c-0.7,3.4-1.2,6.2-1.5,7.9l-0.7,4l-4.7-5.2C55.7,53.7,55.9,53,56.5,52.8L56.5,52.8z M84.4,35.1
	c-1.6,0.4-2.8-0.5-2.5-1.9L84,21c0.3-1.5,2-2.8,3.4-2.5c3.2,0.5,7.9,2.2,8.5,7.1C96.6,31,88.8,33.9,84.4,35.1L84.4,35.1z"/>
<path id="bu" class="st2" d="M44,33.3c-0.1-0.7-0.5-1.1-1.1-1.1l-3.1,0.3c-0.7,0.1-1.3,0.8-1.3,1.7c-0.3,10.5-0.7,17.6-6.4,18.4
	c-4.8,0.7-5.9-12.9-6.2-17.4c0-0.8-0.5-1.3-1.1-1.2l-2.9,0.3c-0.6,0.1-1,0.7-1,1.5c0,2,0.2,5.8,0.7,9.7c-4.4-3.9-11.6-3-11.6-3
	s-0.4-0.5,2.2-1.7c2.6-1.1,10.4-5.8,8.3-14.4c-2.2-8.7-17-5.9-17-5.9s-2.9,0.5-3.5,4l0.4,36.9c0,1,0.7,1.8,1.5,1.9l13.5,0.3
	c1.1,0,2.3-0.2,3.4-0.8c1.9-1,4.8-3.2,5.8-6.6c3,5.3,8.4,6.7,14.8,1.8C44.7,54.1,44.4,37.9,44,33.3z M5.4,35.4v-6.9
	c0-0.7,0.6-1.4,1.1-1.2c1.6,0.4,4.3,1.4,4.1,4.2c-0.2,2.6-2.6,4.2-4,5C6,36.7,5.4,36.2,5.4,35.4z M12.6,53.2c-0.2,2.9-3,4.4-4.8,5.1
	c-0.7,0.3-1.4-0.3-1.4-1.2l0-7.7c0-0.8,0.7-1.5,1.3-1.2C9.6,48.7,12.9,50.2,12.6,53.2z"/>
</svg>
