<?xml version="1.0" encoding="utf-8"?>
<!-- Generator: Adobe Illustrator 28.1.0, SVG Export Plug-In . SVG Version: 6.00 Build 0)  -->
<svg version="1.1" id="burple_x5F_4" xmlns="http://www.w3.org/2000/svg" xmlns:xlink="http://www.w3.org/1999/xlink" x="0px"
	 y="0px" viewBox="0 0 194.1 84.6" style="enable-background:new 0 0 194.1 84.6;" xml:space="preserve">
<style type="text/css">
	.st0{fill:#311F7F;}
	.st1{fill:#FF7F00;}
</style>
<g id="chips">
	<polygon class="st0" points="52.8,34.2 52.4,24.5 46.2,25.4 48.6,35.2 	"/>
	<polygon class="st0" points="88.6,35.5 88.2,25.7 81.9,26.6 84.4,36.4 	"/>
	<polygon class="st0" points="59.2,37.3 63.7,28.6 57.8,26.3 55,36 	"/>
	<polygon class="st0" points="97.4,35 100,25.6 93.8,24.6 93.1,34.7 	"/>
	<polygon class="st0" points="118.1,29.5 117.8,19.7 111.5,20.6 113.9,30.4 	"/>
	<polygon class="st0" points="127,29 129.6,19.6 123.4,18.5 122.7,28.6 	"/>
	<polygon class="st0" points="150.7,10.9 150.3,1.2 144.1,2.1 146.5,11.9 	"/>
	<polygon class="st0" points="159.5,10.5 162.2,1.1 155.9,0 155.2,10.1 	"/>
	<polygon class="st0" points="172.8,38.3 172.5,28.5 166.2,29.4 168.6,39.2 	"/>
	<polygon class="st0" points="181.7,37.8 184.3,28.4 178.1,27.4 177.4,37.5 	"/>
	<polygon class="st0" points="159.8,20.1 169.2,17.8 167.1,11.9 158,16.2 	"/>
	<polygon class="st0" points="184.6,44.3 194.1,42 191.9,36 182.8,40.3 	"/>
	<polygon class="st0" points="18.5,38.3 8.7,38.3 9.4,44.6 19.3,42.6 	"/>
	<polygon class="st0" points="16.4,25.7 6.7,25.7 7.3,32 17.2,30 	"/>
	<polygon class="st0" points="19.4,53.2 9.6,53.2 10.3,59.5 20.2,57.5 	"/>
</g>
<path id="burple_logo" class="st1" d="M187.3,52.1c0,0,1.9-9.5-2-13.4c-3.9-3.9-14.6-5.8-20.1,1.6c-4.8,6.4-1.4,15.9,1.7,20.1h-7.4
	c0,0,2.7-32.8,2.3-49.6c0,0-3.8-3.1-18.8-1.8c0,0,1.7,6.8,1.8,11.8l4.7-1.1c0,0,3.7,27,2.7,40.7h-8c2.3-2.1,4.1-5.3,4.6-10.4
	c1.5-17.4-12.6-18.4-19.4-15.5v-8.2l-17.7,1.4c0,0,0.5,2.4,0.9,5.6c-2.3-0.4-6,0.2-12,3l-0.2-3.6c0,0-13.2,0.1-18.7,1.8
	c0,0,2.2,3.1,3.3,7.6l4.8-1.5c0,0,2.3,11.8,2.4,20.1H78.1c-0.8-10.7,1.3-24.9,1.3-24.9c-1.4-0.5-14.4-2.1-14.4-2.1l0.1,5.4h3.8v14.7
	c0,0-3.3,4.1-5.5,3c-2.2-1.1-1.6-9.8-1.5-16.8s-5.1-7.6-5.1-7.6H42.2c-6.3-5.7-15.8-3-15.8-3s0.2-18.8,0.1-29.1
	c-8.8-1-17.6,0-26.5,2.9c0,0,5.2,4.3,6.3,11.4l7.6-1.4c0,0,4.8,34.6,1.8,52h17.7c0,0,15.9,0.6,14.2-20.3c-0.2-2.9-0.8-5.3-1.7-7.3
	l5.9,0c-0.7,3.8-1.2,18.7-1,21.6c0.2,2.9,3,5.8,8.1,5.8s9.2-4.8,9.2-4.8l-0.1,4.8h37.8v-4.6H101V42c0,0,5.8-5.1,6.4-2.2
	c0.6,2.9,0.6,6.9,0.6,6.9s6-0.1,8.1-1.1v-8.1c0,0,0-0.1,0-0.3h3.4v41.4l-8,0.1v5.9h24.6v-6h-6.5V65.2h46.1c1.1,0.2,2.2,0.2,3.3,0
	h0.1c1.8-0.3,3.6-1.1,5.3-2.6c0,0,2.6-2.6,2.6-7.2h-5c0,0-1.3,6.5-5.1,4.7c-4-1.8-2.7-7.9-2.7-7.9L187.3,52.1L187.3,52.1z
	 M26.4,61.7c1.8-9.5,0-26.5,0-26.5c4.5,0.3,9.5-0.6,9.5,13.3C35.8,63,26.4,61.7,26.4,61.7z M129.2,40c6.5-0.9,9,0.3,9.1,9.8
	c0.1,9.5-9.1,8.4-9.1,8.4V40L129.2,40z M178.3,40.2c3.1,0.9,2.7,8.2,2.7,8.2h-7C174.6,39.4,178.3,40.2,178.3,40.2z"/>
</svg>
