<?xml version="1.0" encoding="utf-8"?>
<!-- Generator: Adobe Illustrator 28.1.0, SVG Export Plug-In . SVG Version: 6.00 Build 0)  -->
<svg version="1.1" id="burple_x5F_6" xmlns="http://www.w3.org/2000/svg" xmlns:xlink="http://www.w3.org/1999/xlink" x="0px"
	 y="0px" viewBox="0 0 172.1 90.5" style="enable-background:new 0 0 172.1 90.5;" xml:space="preserve">
<style type="text/css">
	.st0{fill:#FF7F00;}
</style>
<g id="burple_x5F_6_00000082362828511513802830000006936442434219572145_">
	<path class="st0" d="M78.7,45.6c0-1.2-0.1-2.4-0.4-3.6c-0.4-1.6-1.7-2.7-3.1-2.8c-1.6-0.1-2.6,0.6-3.3,2.4c-0.2,0.5-0.4,1-0.5,1.5
		c-0.7,2.8-0.5,5.7-0.7,8.5c-0.2,2.7-0.3,5.3-0.4,8c-0.2,2.3-0.9,4.3-2.6,5.9c-2.6,2.5-6.8,1.4-7.9-1.9c-0.6-1.8-0.5-3.7-0.5-5.5
		c0.1-4.3,0.3-8.6,0.4-12.9c0-1.5-0.1-3.1-1-4.5c-0.6-0.9-1.6-1.3-2.6-0.9c-1.5,0.5-2.6,1.6-3.3,3.1s-0.9,3.1-0.9,4.7
		c0,3.9,0.1,7.8,0.2,11.7c0.1,2.3,0.4,4.5,1.2,6.7c1.1,2.8,2.6,5.4,5.4,6.8c4.1,2.1,8.3,2.3,12.2-0.5c0.7-0.5,1.1-0.6,1.8,0.1
		c1.3,1.2,3.3,0.8,4.1-0.7c0.4-0.7,0.5-1.5,0.6-2.3c0.3-2.9,0.4-5.9,0.6-8.8c0.2-3.9,0.8-7.8,0.6-12.2
		C78.6,47.8,78.6,46.8,78.7,45.6z M56.1,66.2c-0.3,0.2-0.5-0.2-0.7-0.4c-0.8-1.1-1.2-2.3-1.2-3.6c-0.2-4.2-0.3-8.5-0.3-12.8
		c0-1.7,0.2-3.4,0.7-5c0.1-0.4,0.3-0.8,0.9-1.2c-0.6,1.6-0.7,3.1-0.7,4.6c0.1,4.7,0.2,9.5,0.3,14.2c0.1,1.2,0.6,2.2,1,3.3
		C56.3,65.6,56.5,66,56.1,66.2z M73.3,47.7c0,3.4,0,6.7,0.1,10.1c0,0.8-0.2,1.6-0.4,2.4c0,0.2-0.1,0.5-0.4,0.5
		c-0.3-0.1-0.3-0.4-0.3-0.7c0-1.1,0.1-2.1,0.1-3.2c0-3.3,0-6.7,0-10c0-1.3,0.2-2.5,0.7-3.6c0.3-0.8,0.9-1.4,1.8-1.6
		C73.3,43.3,73.3,45.4,73.3,47.7z"/>
	<path id="p" class="st0" d="M103.7,36c0,0.2,0.1,0.4,0.1,0.7c0.1,0.8,0,1.6,0.3,2.4c0.6-0.1,0.8-0.5,1.1-0.9
		c4.9-5.7,11.3-6.5,17.9-4.6c7.7,2.3,12.1,8.2,13.5,15.9c1.4,7.7-0.4,14.9-6.5,20.3c-5.9,5.2-15.4,4.8-21.9-0.5
		c-0.9-0.7-1.8-1.5-2.8-2.4c-0.1,0.5-0.2,0.8-0.2,1.1c0,3.7-0.1,7.5-0.1,11.2c0,3,0,6.1-1.2,8.9c-0.5,1.2-1.3,2.3-2.8,2.4
		c-1.6,0.2-2.6-0.7-3.4-1.8c-1.3-1.9-1.7-4.1-1.6-6.3c0.6-12.2,0-24.4,0.2-36.7c0-3-0.5-6,0.4-8.9c0.5-1.7,1.5-3,3.4-3.2
		C102,33.4,103,34.4,103.7,36z M125.6,46L125.6,46c-1.6-1.7-3.5-2.6-5.9-2.2c-3.9,0.6-6.8,3.8-7.2,7.7c-0.4,5.6,3.5,10.3,8.5,10.2
		c3.4-0.1,6.5-2.5,7.6-5.8C129.8,52.6,128.5,48.3,125.6,46z M104.9,46.5c0.4,0,0.4-0.3,0.5-0.6c3.5-8.3,11.4-12.1,19.7-7.4
		c0.5,0.3,1.1,0.5,1.4-0.2s-0.4-0.9-0.8-1.1c-2.2-1.3-4.7-2-7.3-2C111.1,35.3,106,39.6,104.9,46.5L104.9,46.5z"/>
	<path id="e" class="st0" d="M162.8,66.5c0.1,0,0.1,0,0.2-0.1c1.6-0.6,2.8-2,4.5-2.4c2-0.4,3.2,0.7,2.9,2.7
		c-0.1,0.9-0.6,1.6-1.1,2.3c-3.4,4.8-11.1,6.3-16.6,3.2c-10.1-5.8-11.5-22-2.4-29.3c6.2-5,16.3-3.6,20.2,3c2.3,3.8,2,8.1-1.2,10.6
		c-4.6,3.6-9.7,5.5-15.6,3.2c-1.3-0.5-1.4,0-1.4,1.1C152.6,66.9,157.6,69.6,162.8,66.5L162.8,66.5z M154.9,49.1
		c-1.6,2.4-0.9,4.8,1.7,5.9c2,0.8,4,0.8,6,0c1.5-0.6,2.8-1.5,3-3.3c0.2-1.9-0.6-3.3-2-4.4C161.1,45.4,156.5,46.3,154.9,49.1
		L154.9,49.1L154.9,49.1z M163.9,56.1c-3.2,1.3-6.2,1.5-9.4,0.5C157.5,58.8,161.8,58.7,163.9,56.1z"/>
	<path id="r" class="st0" d="M90.2,42.2c1.3-2,2.5-3.4,4.4-4.2c3.7-1.5,7.7-0.6,9.4,3.5c0.4,1,0.4,2.3-0.5,3.2c-1,1-2.2,0.7-3.3,0.2
		c-3.8-1.5-6.5-0.8-8.5,2.4c-0.9,1.5-1.7,3.2-1.8,5.1c-0.3,5.4-0.7,10.8-1.1,16.3c-0.1,1.1-0.2,2.2-0.7,3.2
		c-0.4,0.9-1.1,1.6-2.1,1.6c-0.9,0-1.3-0.9-1.7-1.6c-0.9-2.2-1-4.7-1.2-7C82.7,57.4,82,50,82.5,42.5c0.1-0.9,0-1.8,0.4-2.8
		c0.7-1.7,1.9-2.7,3.4-2.6c1.6,0.1,2.9,1.2,3.4,2.9C89.9,40.6,90,41.2,90.2,42.2L90.2,42.2z M92.4,41.8c0.5-0.3,0.7-0.4,0.8-0.5
		c2.1-1.3,4.2-2.6,6.8-1.2c0.3,0.2,0.8,0.2,0.9-0.3c0.2-0.4-0.2-0.6-0.5-0.8C98.4,37.4,93.8,39.1,92.4,41.8L92.4,41.8z"/>
	<path class="st0" d="M24.9,21.5c-4.6,0.6-8,3.3-11.3,6.2c-0.5,0.4-1,1.1-1.7,0.8c-0.7-0.3-0.5-1.2-0.5-1.8c0-3.6,0.1-7.2-0.1-10.8
		c-0.2-4.2,0.2-8.5-1.4-12.6C9.2,1.6,8,0.1,6,0C4.1-0.1,2.7,1.1,1.7,2.8C0.2,5.3-0.1,8,0,10.8c0.8,14.8,0.3,29.6,0.5,44.4
		c0,3.8-0.6,7.6,0.5,11.3c0.9,2.9,3,4.8,5.2,4.5c2.7-0.4,3.6-2.4,3.9-4.9c0.1-0.5,0-1.3,0.6-1.5c0.7-0.2,1,0.4,1.4,0.8
		c3.3,4,7.6,5.7,12.9,6.1c5.6,0.9,10.8-0.5,15.5-4C50,60.4,53.4,48.7,49.4,36C45.7,24.5,36.7,19.9,24.9,21.5z M4.4,50
		C3.9,36.2,2.9,22.4,4.8,7.7C6.3,12.1,6.3,46.4,4.4,50z M16.3,33.8c-0.6,0.7-1.2,1.5-2.2,2.8c2.6-9.5,12.6-14.7,20.5-11.2
		c0.9,0.4,2.2,0.7,2.2,1.7c0,0.2,0,0.3-0.1,0.6c-0.5,1.5-1.8,0.3-2.7,0C27.1,25.4,21.1,27.4,16.3,33.8z M42.1,50.5
		c-0.7,7.3-5.9,12.4-12,11.8c-6.3-0.7-10.5-6.4-9.7-13.4c0.3-7.4,7-11.3,12.2-10.8C38.6,38.7,42.8,44.2,42.1,50.5z M43.5,32.2
		c-0.5,0.7-1.7,0.6-2.7-0.1c-1-0.7-1.5-1.9-1-2.6c0.5-0.7,1.7-0.6,2.7,0.1C43.5,30.4,44,31.5,43.5,32.2z"/>
	<path class="st0" d="M144.8,18c-0.3-1.6-0.9-3-2.7-3.3c-1.5-0.3-3,0.6-3.9,2.3c-0.4,0.9-0.7,1.9-0.7,2.9c-0.1,7.5-0.3,25.7-0.4,34
		c0.3,4.8-0.4,10.3,0.1,15.8c0.2,2.3,1.6,3.7,3.3,3.7c1.6,0,2.9-1.6,3.1-3.9c0.2-1.8,0.3-3.5,0.3-5.3c0.1-7.7,0.7-15.5,0.9-23.2
		C144.9,36.9,145.6,22.1,144.8,18z M139,53.4c-0.2,0.6-0.5,0-0.5,0l0.6-32C141.7,18,139.2,52.8,139,53.4z"/>
</g>
</svg>
